PathFileType	4	(X/Y/Z)	/mnt/data/output.trc
DataRate	CameraRate	NumFrames	NumMarkers	Units	OrigDataRate	OrigDataStartFrame	OrigNumFrames
100	100	10	17	mm	100	1	3966
Frame#	Time	nosex	nosey	nosez	lefteyex	lefteyey	lefteyez	righteyex	righteyey	righteyez	leftearx	lefteary	leftearz	rightearx	righteary	rightearz	leftshoulderx	leftshouldery	leftshoulderz	rightshoulderx	rightshouldery	rightshoulderz	leftelbowx	leftelbowy	leftelbowz	rightelbowx	rightelbowy	rightelbowz	leftwristx	leftwristy	leftwristz	rightwristx	rightwristy	rightwristz	lefthipx	lefthipy	lefthipz	righthipx	righthipy	righthipz	leftkneex	leftkneey	leftkneez	rightkneex	rightkneey	rightkneez	leftanklex	leftankley	leftanklez	rightanklex	rightankley	rightanklez
		1	1	1	2	2	2	3	3	3	4	4	4	5	5	5	6	6	6	7	7	7	8	8	8	9	9	9	10	10	10	11	11	11	12	12	12	13	13	13	14	14	14	15	15	15	16	16	16	17	17	17
1	0.01	-81.77796151732923	-574.6103862012677	3277.836753155172	-64.91227640484065	-605.3319072132922	3295.360252486505	-104.4583823069327	-604.2829784232877	3294.7537507800807	2.540669685322826	-586.787137032578	3386.892916987564	-158.40994318408465	-595.0938983864115	3402.652542788097	81.51645977614663	-403.3717456056268	3441.7711626529785	-238.6897343144684	-412.1849492624569	3454.583934842914	132.41902081735913	-129.28376741901457	3424.5626797441078	-294.8340352557114	-148.21450885000752	3469.608107450178	144.04922424023744	61.23898886798457	3378.504639030242	-312.73865712049474	72.05664493769791	3407.9319203178943	18.174292809637816	19.30560519584454	3460.2869498053647	-188.16803524326727	18.467634871081287	3463.7444655383274	9.764875685072504	427.98389227914345	3530.447629104832	-160.24641088049785	427.5332737116207	3531.190818033901	17.803698131537093	791.6796343979498	3545.52671967492	-143.67788118461445	792.991723827346	3556.391994357033
2	0.02	-81.78742051072736	-574.6157038949184	3277.783726434456	-64.98546951739708	-603.9161432544507	3295.451002576897	-104.46818947780318	-604.2887966719005	3294.7010222388035	2.5155528149911968	-586.7951361669931	3386.846534003475	-158.51324688583364	-593.8106834310003	3402.7821797989727	81.49835896973431	-403.37021050835233	3441.7224695193186	-238.96006885545225	-411.8431309495543	3451.492630381253	132.40521110623467	-129.2697790012653	3424.517156933783	-295.1023837338934	-147.84844636576216	3466.4714597434645	144.04169426128308	61.26492459037969	3378.4589228347786	-311.2090844087533	72.4454870326868	3404.7584662590666	18.154713056781645	19.32615903605438	3460.248663411925	-188.2009193985588	18.487105948357176	3463.718162090567	9.752021619476048	428.0245063169877	3530.425723138933	-160.2698038256394	427.5729512280885	3531.1764715859204	17.798943700969694	791.7385588762464	3545.5190207478454	-143.6918066757639	793.0500894636282	3556.391546217749
3	0.03	-84.04705616052115	-574.4584095773538	3276.087539390445	-64.92738322994252	-605.3519455846533	3295.2693582502693	-104.47427924547225	-604.3025795904508	3294.6638650628825	2.662523042281728	-588.0629733430851	3386.7150083652214	-158.52521735967247	-593.8236129704437	3402.745367878753	81.48549992802295	-403.384850821339	3441.688419378617	-238.74148836521707	-412.1986739104866	3454.515615442535	132.3940032610752	-129.2843642377942	3424.4822606379844	-295.1127098799642	-147.8611510024295	3466.4344313301226	144.0319509742739	61.250230580138506	3378.423610888576	-311.2141170123348	72.43017824968811	3404.7674822912754	18.144103967631963	19.31226270678309	3460.2140965184303	-188.2107857905932	18.473971534408346	3463.6820597140686	9.739121244420282	428.01097827700175	3530.388105533212	-160.282259394347	427.5598483650243	3531.137814130003	17.7839714564151	791.7252212752317	3545.4771754886506	-143.70665450025368	793.0372425031254	3556.3491247900733
4	0.04	-83.48021260970052	-574.2871465750932	3275.86220823549	-64.36521606342718	-605.1774087597953	3295.0325849098917	-103.91572763287982	-604.1301462126772	3294.4390633471385	2.9525248293679334	-588.5554237944546	3392.253691709386	-158.69675747384144	-593.6899108511977	3402.6550840606656	83.57783853798321	-404.5140589440225	3441.0849748830287	-237.16711285358437	-413.0558506177796	3451.2102724776737	136.00687008468088	-127.30926174266745	3421.0648025095675	-295.4861711968349	-149.09144313886964	3466.3733913541755	142.031572580132	61.59148006671787	3376.7186299226496	-309.5266402837798	71.22936813810536	3404.1100734350325	20.8262079262228	18.219500715551927	3459.537626969493	-187.37485136911715	15.831666284677317	3465.36624692753	8.880474623015843	427.0886840954752	3528.515901734465	-158.63724237514597	426.3244338609967	3530.8765721307723	19.396381994277345	790.3142911645306	3547.430406947833	-143.99900835547922	793.2210310714987	3556.3917724680746
5	0.05	-83.27550037120032	-574.2084858541568	3275.771770510257	-64.22660344840548	-603.6768635863418	3295.0848645434057	-103.71169639124142	-604.0520257185129	3294.3513005930085	2.7044178533612837	-588.1982779294997	3389.399852848333	-158.52065018393137	-593.622109128453	3402.575750166465	83.76144250502874	-404.44082793616417	3440.9845122458983	-236.60480144112464	-413.2455627856624	3453.638434124376	136.18743321007054	-127.23559487358445	3420.9659648612387	-294.70784943711584	-150.5214553008085	3469.302572053908	141.93927156030796	63.00878014116112	3377.1578585482785	-309.3590899470455	71.27484569432417	3403.9680283826046	21.01180214600205	18.296263562506123	3459.4367901784804	-187.26444548756405	14.489396871542702	3465.5197638120003	9.063953681714988	427.168256162095	3528.419792588164	-158.19189875742404	427.91682105410985	3530.487839927378	19.581759586796952	790.3962590560012	3547.336710939899	-143.81491445243623	793.3038050459996	3556.308167174724
6	0.06	-83.23063812475024	-574.1855153384571	3275.750147163838	-64.1186188442319	-605.0748445839126	3294.919769774131	-103.6803087997247	-603.6642665851525	3291.3610127321363	2.759452689706742	-588.1764318913932	3389.370353920621	-158.4497237694964	-593.6014755736094	3402.546865179846	83.8039093433628	-404.429076534543	3440.9516957919286	-236.9164808251735	-412.9758335830917	3451.100953757515	136.22672833438332	-127.23842717656788	3420.924630708851	-294.62712969004696	-150.52363750367957	3469.262025322449	141.98301480445804	62.995154491967696	3377.109068493243	-309.27256269349965	71.27758522527888	3403.870833175099	21.06163038299229	18.28440744598923	3459.390350650149	-187.04417656459276	15.904230444794784	3465.351675301508	9.119581926956556	427.1357549139488	3528.351102644818	-158.11977549896147	427.8848534864978	3530.4196999435503	20.29919828855532	791.7463236477934	3547.747836073	-143.7344089747584	793.2528703813081	3556.214151630736
7	0.07	-83.19094091992714	-574.2616382180188	3275.6612396570613	-64.14640342185744	-603.7304162925593	3294.9758972851278	-103.6413022155965	-603.7401824053989	3291.274514923042	2.583187902674507	-587.9251890217633	3386.449025195187	-158.42492247666266	-593.664629208415	3402.469486175926	83.8376654193811	-404.4962967353946	3440.884511630794	-236.88150560058213	-413.0289937471313	3451.019147904852	135.7429572349128	-126.9912431319049	3417.873305860078	-294.9596204272152	-149.41711218795805	3469.278431812028	142.02497719022531	62.933244961848814	3377.034123659626	-309.22498393247406	71.23708687975501	3403.8327783221275	21.109652634685293	18.235663739584	3459.31812774514	-189.39720856344184	17.22849576740844	3463.648758291403	9.164513626376197	427.1015355804081	3528.280818602169	-158.34144016217058	426.3426820799215	3530.6473294022926	20.33151554150712	791.719472150627	3547.687204264761	-143.70611362746266	793.2316105752403	3556.150815236316
8	0.08	-83.22412417516179	-574.2263680089528	3275.542092711773	-64.11614898248422	-605.1171015023417	3294.7132649641003	-103.67145136029774	-603.7052179964107	3291.1564964372083	2.5546978198788706	-587.8848071251355	3386.323381231134	-158.4490242550836	-593.6280879527598	3402.3568427009573	83.80503400521195	-404.4545025668295	3440.7529927572787	-236.9073187523019	-412.9942771811093	3450.9123654115983	136.23152734961943	-127.25005909983835	3420.707308761122	-294.9894828917718	-149.3833860534662	3469.1766605724497	141.97788817327228	62.9756005821199	3376.9025114021238	-308.8787645622864	72.96160631687998	3403.840755568652	21.235344348373356	19.545090905430776	3459.7436508083792	-189.4465501649689	14.373680092807213	3465.8469127391045	9.511140294390136	426.8379564232254	3531.065008949423	-158.3793878763497	426.3778811175322	3530.538458300402	20.28978309960017	791.7573594683514	3547.5710888884328	-143.35664686417837	793.0000191647371	3558.7045318384507
9	0.09	-83.04267443397644	-573.2692486110137	3275.3194035973543	-61.76395423144315	-605.3857733054551	3292.251752441019	-101.28281986200268	-603.9870783498515	3288.7257087237167	1.0344041750174706	-587.3222451925872	3388.0512608250583	-158.13869799528916	-592.7501057445903	3401.889484421297	83.89436110386775	-405.044982595308	3440.4373823045644	-236.167102432732	-413.8481066299266	3452.7915445696394	136.11867097091994	-128.11801045974735	3420.385474521351	-294.48539320507166	-148.85926578165734	3468.577732669577	142.58836499284232	62.88733422296337	3379.816304311873	-308.8224426865284	71.7477147173454	3402.769804236564	20.87582052348554	21.22081184264091	3459.36815600738	-191.25451632478163	17.52222168388543	3463.543561964071	8.005257910674095	426.4432615097344	3532.5983501407304	-158.05040879380445	426.3436106837253	3529.915885558584	20.30813135673732	791.3349379048861	3546.99302932326	-144.63588362901504	792.3992800499467	3560.059771386659
10	0.1	-82.94229768121843	-574.7590067035281	3275.2728058273724	-61.87560101659844	-605.4102746940891	3292.286161794327	-101.39457040434206	-604.0104818348931	3288.759127194015	3.0783923022025057	-587.3641523516729	3388.829041646817	-158.22427605587586	-592.7689125053142	3401.916116155294	83.81561659809046	-405.0700635486149	3440.4600776509337	-236.63567719327435	-413.6098994264737	3450.316333418747	136.04621675723226	-128.14721455060263	3420.411723879876	-294.55953148012645	-148.88390232339376	3468.6136889852355	142.51703093148268	62.85431548547954	3379.850000523187	-308.9002815758428	71.70110792824377	3402.797234392226	20.641711242313765	19.920333682630385	3458.8493544946227	-189.58989805223192	15.929972696712955	3465.449784267975	7.943194604759757	426.4078628194762	3532.633248433264	-158.1142253013939	426.3094495617066	3529.956178028604	20.24802548518393	791.2941983738148	3547.033519622426	-143.26521988356274	792.5758898670477	3558.035677008896
